<svg width="24" height="24" viewBox="0 0 24 24" fill="none" xmlns="http://www.w3.org/2000/svg">
<path d="M21.7961 20.2042L17.3439 15.7501C18.6788 14.0106 19.302 11.8284 19.0871 9.64618C18.8723 7.46401 17.8354 5.44527 16.1868 3.99948C14.5383 2.55369 12.4015 1.7891 10.21 1.86083C8.01841 1.93255 5.9362 2.83521 4.3857 4.3857C2.83521 5.9362 1.93255 8.01841 1.86083 10.21C1.7891 12.4015 2.55369 14.5383 3.99948 16.1868C5.44527 17.8354 7.46401 18.8723 9.64618 19.0871C11.8284 19.302 14.0106 18.6788 15.7501 17.3439L20.2061 21.8007C20.3107 21.9054 20.4349 21.9884 20.5717 22.045C20.7084 22.1017 20.8549 22.1308 21.0029 22.1308C21.1509 22.1308 21.2975 22.1017 21.4342 22.045C21.5709 21.9884 21.6952 21.9054 21.7998 21.8007C21.9044 21.6961 21.9875 21.5719 22.0441 21.4351C22.1007 21.2984 22.1299 21.1519 22.1299 21.0039C22.1299 20.8559 22.1007 20.7093 22.0441 20.5726C21.9875 20.4359 21.9044 20.3116 21.7998 20.207L21.7961 20.2042ZM4.12512 10.5001C4.12512 9.23926 4.499 8.00672 5.1995 6.95836C5.89999 5.90999 6.89563 5.09289 8.06051 4.61038C9.22539 4.12788 10.5072 4.00163 11.7438 4.24761C12.9804 4.49359 14.1164 5.10075 15.0079 5.99231C15.8995 6.88387 16.5066 8.01979 16.7526 9.25642C16.9986 10.493 16.8724 11.7748 16.3898 12.9397C15.9073 14.1046 15.0902 15.1002 14.0419 15.8007C12.9935 16.5012 11.761 16.8751 10.5001 16.8751C8.80989 16.8734 7.1894 16.2012 5.99423 15.006C4.79906 13.8108 4.12685 12.1903 4.12512 10.5001Z" fill="black" fill-opacity="0.4"/>
</svg>
