<svg width="22" height="22" viewBox="0 0 22 22" fill="none" xmlns="http://www.w3.org/2000/svg">
<path d="M20.7961 19.2042L16.3439 14.7501C17.6788 13.0106 18.302 10.8284 18.0871 8.64618C17.8723 6.46401 16.8354 4.44527 15.1868 2.99948C13.5383 1.55369 11.4015 0.789103 9.20996 0.860827C7.01841 0.932551 4.9362 1.83521 3.3857 3.3857C1.83521 4.9362 0.932551 7.01841 0.860827 9.20996C0.789103 11.4015 1.55369 13.5383 2.99948 15.1868C4.44527 16.8354 6.46401 17.8723 8.64618 18.0871C10.8284 18.302 13.0106 17.6788 14.7501 16.3439L19.2061 20.8007C19.3107 20.9054 19.4349 20.9884 19.5717 21.045C19.7084 21.1017 19.8549 21.1308 20.0029 21.1308C20.1509 21.1308 20.2975 21.1017 20.4342 21.045C20.5709 20.9884 20.6952 20.9054 20.7998 20.8007C20.9044 20.6961 20.9875 20.5719 21.0441 20.4351C21.1007 20.2984 21.1299 20.1519 21.1299 20.0039C21.1299 19.8559 21.1007 19.7093 21.0441 19.5726C20.9875 19.4359 20.9044 19.3116 20.7998 19.207L20.7961 19.2042ZM3.12512 9.50012C3.12512 8.23926 3.499 7.00672 4.1995 5.95836C4.89999 4.90999 5.89563 4.09289 7.06051 3.61038C8.22539 3.12788 9.50719 3.00163 10.7438 3.24761C11.9804 3.49359 13.1164 4.10075 14.0079 4.99231C14.8995 5.88387 15.5066 7.01979 15.7526 8.25642C15.9986 9.49304 15.8724 10.7748 15.3898 11.9397C14.9073 13.1046 14.0902 14.1002 13.0419 14.8007C11.9935 15.5012 10.761 15.8751 9.50012 15.8751C7.80989 15.8734 6.1894 15.2012 4.99423 14.006C3.79906 12.8108 3.12685 11.1903 3.12512 9.50012Z" fill="black" fill-opacity="0.4"/>
</svg>
