<svg width="20" height="20" viewBox="0 0 20 20" fill="none" xmlns="http://www.w3.org/2000/svg">
<path d="M16.2883 14.9617C16.4644 15.1379 16.5633 15.3767 16.5633 15.6258C16.5633 15.8749 16.4644 16.1137 16.2883 16.2899C16.1122 16.466 15.8733 16.5649 15.6242 16.5649C15.3751 16.5649 15.1363 16.466 14.9602 16.2899L10 11.3281L5.03828 16.2883C4.86216 16.4644 4.62329 16.5634 4.37422 16.5634C4.12514 16.5634 3.88627 16.4644 3.71015 16.2883C3.53403 16.1122 3.43509 15.8733 3.43509 15.6242C3.43509 15.3752 3.53403 15.1363 3.71015 14.9602L8.67187 10L3.71172 5.0383C3.53559 4.86218 3.43665 4.62331 3.43665 4.37423C3.43665 4.12516 3.53559 3.88629 3.71172 3.71017C3.88784 3.53405 4.12671 3.43511 4.37578 3.43511C4.62485 3.43511 4.86372 3.53405 5.03984 3.71017L10 8.67189L14.9617 3.70939C15.1378 3.53327 15.3767 3.43433 15.6258 3.43433C15.8748 3.43433 16.1137 3.53327 16.2898 3.70939C16.466 3.88551 16.5649 4.12438 16.5649 4.37345C16.5649 4.62252 16.466 4.86139 16.2898 5.03751L11.3281 10L16.2883 14.9617Z" fill="white"/>
</svg>
