<svg width="16" height="16" viewBox="0 0 16 16" fill="none" xmlns="http://www.w3.org/2000/svg">
<path d="M13.5306 6.53073L8.53063 11.5307C8.46095 11.6007 8.37816 11.6561 8.28699 11.694C8.19583 11.7318 8.09809 11.7513 7.99938 11.7513C7.90067 11.7513 7.80293 11.7318 7.71176 11.694C7.6206 11.6561 7.53781 11.6007 7.46813 11.5307L2.46813 6.53073C2.32723 6.38984 2.24808 6.19874 2.24808 5.99948C2.24808 5.80023 2.32723 5.60913 2.46813 5.46823C2.60902 5.32734 2.80012 5.24818 2.99938 5.24818C3.19864 5.24818 3.38973 5.32734 3.53063 5.46823L8 9.93761L12.4694 5.46761C12.6103 5.32671 12.8014 5.24756 13.0006 5.24756C13.1999 5.24756 13.391 5.32671 13.5319 5.46761C13.6728 5.60851 13.7519 5.7996 13.7519 5.99886C13.7519 6.19812 13.6728 6.38921 13.5319 6.53011L13.5306 6.53073Z" fill="black"/>
</svg>
